<?xml version="1.0" standalone="no"?>
<!DOCTYPE svg PUBLIC "-//W3C//DTD SVG 20010904//EN"
 "http://www.w3.org/TR/2001/REC-SVG-20010904/DTD/svg10.dtd">
<svg version="1.0" xmlns="http://www.w3.org/2000/svg"
 width="1024.000000pt" height="1024.000000pt" viewBox="0 0 1024.000000 1024.000000"
 preserveAspectRatio="xMidYMid meet">
<metadata>
Created by potrace 1.14, written by Peter Selinger 2001-2017
</metadata>
<g transform="translate(0.000000,1024.000000) scale(0.100000,-0.100000)"
fill="#000000" stroke="none">
<path d="M2867 9559 c7 -7 15 -10 18 -7 3 3 -2 9 -12 12 -14 6 -15 5 -6 -5z"/>
<path d="M4706 9518 c3 -5 10 -6 15 -3 13 9 11 12 -6 12 -8 0 -12 -4 -9 -9z"/>
<path d="M6390 9521 c0 -6 4 -12 8 -15 5 -3 9 1 9 9 0 8 -4 15 -9 15 -4 0 -8
-4 -8 -9z"/>
<path d="M5755 9471 c-3 -5 -2 -12 3 -15 5 -3 9 1 9 9 0 17 -3 19 -12 6z"/>
<path d="M7933 9445 c0 -8 4 -12 9 -9 5 3 6 10 3 15 -9 13 -12 11 -12 -6z"/>
<path d="M2738 9444 c-4 -4 -65 -10 -171 -18 -26 -2 -50 -6 -54 -9 -3 -4 -15
-2 -26 4 -14 8 -18 8 -13 0 5 -7 -2 -12 -16 -12 -33 -2 -58 -7 -103 -19 -22
-6 -51 -13 -65 -16 -13 -3 -26 -7 -29 -10 -2 -2 -10 1 -18 8 -11 9 -12 7 -7
-8 4 -10 4 -16 -1 -12 -4 4 -24 1 -44 -6 -121 -45 -237 -91 -241 -96 -3 -3
-32 -18 -65 -34 -33 -15 -79 -41 -103 -57 -24 -16 -45 -29 -47 -29 -13 0 -123
-78 -118 -84 4 -3 1 -6 -5 -6 -18 0 -23 -3 -52 -30 -81 -76 -166 -145 -177
-144 -7 1 -10 -2 -8 -7 7 -11 -26 -49 -37 -43 -5 3 -7 2 -6 -3 4 -13 -26 -53
-40 -53 -7 0 -10 -5 -7 -10 3 -6 -1 -13 -9 -16 -9 -3 -16 -11 -16 -17 0 -20
-42 -56 -59 -50 -14 4 -14 3 -1 -6 9 -7 11 -14 5 -18 -5 -5 -14 -15 -20 -24
-37 -59 -70 -105 -79 -111 -6 -4 -7 -8 -2 -8 5 0 0 -10 -11 -22 -11 -13 -33
-49 -48 -80 -15 -32 -31 -56 -35 -53 -5 3 -6 -4 -3 -15 3 -11 1 -20 -5 -20 -6
0 -13 -13 -17 -30 -4 -16 -11 -30 -16 -30 -6 0 -8 -3 -6 -8 3 -4 -3 -25 -14
-46 -10 -21 -16 -43 -13 -47 3 -5 1 -9 -5 -9 -5 0 -12 -14 -16 -31 -5 -22 -11
-29 -22 -24 -13 4 -13 3 -4 -9 9 -10 8 -24 -4 -58 -8 -24 -17 -55 -19 -69 -3
-13 -5 -25 -7 -26 -2 -4 -6 -20 -8 -34 0 -5 -5 -8 -10 -5 -10 7 -9 -20 1 -30
11 -10 -3 -34 -16 -27 -8 5 -8 3 0 -8 13 -18 -6 -135 -20 -122 -6 5 -6 2 -1
-7 12 -19 6 -81 -8 -99 -7 -9 -8 -12 -1 -8 11 6 10 -175 -1 -193 -3 -6 -2 -10
2 -10 5 0 9 -9 9 -20 0 -11 -3 -20 -6 -20 -8 0 -6 -37 2 -45 3 -3 2 -22 -2
-41 -5 -20 -4 -34 2 -34 5 0 6 -5 2 -12 -12 -20 -13 -58 -2 -58 6 0 3 -10 -8
-22 -10 -12 -13 -18 -5 -13 11 6 13 4 8 -8 -3 -10 -3 -17 1 -17 8 0 6 -199 -2
-207 -3 -3 -1 -15 5 -26 7 -12 7 -17 1 -13 -6 3 -9 -5 -8 -19 0 -14 5 -25 9
-25 5 0 5 -6 1 -12 -10 -16 -13 -48 -5 -48 7 0 4 -128 -3 -147 -3 -7 -2 -13 2
-13 8 0 6 -99 -2 -108 -3 -3 -1 -11 5 -18 6 -8 7 -14 0 -18 -6 -4 -7 -14 -4
-23 4 -11 2 -14 -5 -9 -7 4 -6 -4 3 -20 10 -20 11 -33 4 -46 -7 -14 -7 -24 2
-34 6 -8 8 -14 3 -14 -5 0 -9 -18 -9 -40 0 -22 4 -40 9 -40 5 0 3 -6 -3 -13
-6 -8 -8 -17 -5 -20 8 -8 8 -176 0 -184 -3 -3 -1 -12 5 -20 6 -7 8 -13 3 -13
-5 0 -9 -18 -9 -40 0 -22 4 -40 9 -40 6 0 5 -5 -1 -11 -8 -8 -8 -20 -3 -34 5
-13 7 -25 4 -28 -3 -2 -4 -24 -4 -48 0 -24 1 -81 1 -126 1 -44 -1 -85 -4 -90
-3 -5 -2 -15 3 -22 4 -8 4 -27 0 -42 -6 -19 -5 -29 2 -29 6 0 5 -7 -3 -17 -10
-11 -10 -14 -2 -9 10 5 11 1 4 -17 -7 -17 -6 -29 2 -37 10 -10 8 -12 -7 -6
-16 5 -17 4 -6 -9 10 -12 10 -18 0 -30 -11 -13 -10 -14 6 -9 14 5 16 4 8 -5
-7 -7 -8 -29 -4 -56 4 -24 3 -50 -1 -57 -4 -7 -2 -19 4 -27 10 -12 9 -14 -7
-8 -15 6 -17 5 -7 -7 6 -8 11 -18 10 -22 -1 -5 0 -13 1 -19 4 -21 0 -116 -5
-125 -4 -6 -3 -10 2 -10 9 0 8 -99 -1 -108 -3 -3 -1 -11 5 -18 6 -7 6 -15 1
-18 -5 -3 -6 -23 -2 -45 4 -22 4 -45 -1 -52 -4 -7 -4 -22 1 -34 5 -12 4 -28 0
-35 -5 -8 -4 -22 1 -32 5 -10 6 -18 1 -18 -4 0 -8 -9 -8 -20 0 -11 4 -20 9
-20 4 0 5 -5 1 -12 -12 -18 -14 -59 -3 -53 5 4 6 -3 0 -17 -4 -13 -5 -32 -1
-43 4 -11 3 -28 -2 -38 -6 -12 -5 -23 3 -33 6 -8 8 -14 3 -14 -5 0 -9 -18 -9
-40 0 -22 4 -40 9 -40 5 0 3 -6 -3 -13 -6 -8 -8 -17 -5 -20 8 -8 8 -176 0
-184 -3 -3 -1 -12 5 -20 6 -7 8 -13 3 -13 -5 0 -9 -18 -9 -40 0 -22 4 -40 9
-40 5 0 3 -6 -3 -13 -6 -8 -8 -17 -5 -20 8 -8 8 -203 0 -216 -4 -6 -2 -11 4
-11 6 0 8 -5 5 -10 -4 -6 -12 -7 -18 -3 -8 5 -8 2 1 -9 7 -8 9 -24 5 -33 -4
-13 -3 -16 6 -10 10 6 11 3 3 -12 -6 -11 -7 -25 -2 -33 5 -8 5 -21 0 -31 -5
-9 -7 -19 -3 -23 8 -7 6 -132 -2 -146 -3 -5 -3 -10 2 -10 9 0 8 -99 -1 -108
-3 -3 -1 -11 5 -18 7 -8 7 -14 0 -18 -6 -4 -7 -16 -2 -29 10 -26 3 -50 -11
-41 -5 4 -3 -4 6 -17 10 -16 12 -29 6 -39 -5 -8 -5 -21 1 -32 5 -10 6 -18 1
-18 -5 0 -6 -20 -2 -45 4 -24 3 -50 -1 -57 -4 -7 -3 -18 3 -25 6 -7 6 -13 1
-13 -11 0 -11 -40 0 -57 5 -7 4 -13 0 -13 -5 0 -9 -9 -9 -20 0 -11 4 -20 9
-20 5 0 5 -6 -1 -12 -5 -7 -6 -22 -2 -33 4 -11 4 -30 -1 -42 -5 -14 -5 -23 1
-23 12 0 9 -22 -5 -32 -6 -5 -6 -8 1 -8 11 0 14 -21 17 -127 1 -33 5 -56 9
-50 4 7 8 -2 8 -20 0 -17 4 -43 10 -58 7 -18 7 -24 -1 -20 -7 5 -7 2 0 -11 23
-41 40 -121 28 -133 -9 -9 -7 -10 8 -5 18 7 19 6 5 -11 -9 -11 -10 -16 -2 -11
8 5 12 1 12 -13 0 -11 4 -22 9 -25 4 -3 11 -18 14 -33 3 -16 14 -46 23 -68 10
-22 17 -46 15 -52 -1 -7 2 -13 7 -13 5 0 13 -10 17 -22 4 -13 8 -25 10 -28 1
-3 5 -14 10 -25 4 -11 24 -46 43 -77 20 -33 31 -62 26 -69 -4 -7 -3 -10 3 -6
5 3 17 -10 28 -29 10 -19 21 -34 25 -34 8 0 25 -49 22 -63 -1 -4 2 -6 7 -5 16
5 81 -89 75 -109 -5 -15 -4 -15 5 -3 16 23 27 2 12 -23 -13 -20 -13 -21 3 -8
15 13 19 13 26 1 11 -17 3 -33 -12 -24 -7 4 -8 2 -4 -5 6 -9 11 -9 23 0 12 10
16 10 23 -1 5 -8 6 -18 4 -22 -3 -5 0 -7 8 -6 7 2 12 -3 10 -10 -1 -6 2 -11 7
-10 11 4 107 -94 103 -105 -1 -4 1 -6 6 -5 15 5 64 -41 56 -53 -4 -7 -3 -9 4
-5 15 9 92 -46 87 -62 -3 -7 -1 -11 3 -8 12 7 117 -64 114 -77 -2 -7 0 -9 4
-5 6 7 61 -18 74 -33 6 -7 42 -26 118 -63 35 -17 51 -30 46 -39 -5 -9 -4 -9 6
-1 9 9 22 7 53 -8 49 -24 74 -34 105 -43 12 -4 22 -11 22 -16 0 -6 4 -8 9 -5
10 7 130 -28 174 -50 15 -7 25 -9 22 -4 -8 13 -5 13 44 -5 23 -8 45 -14 49
-15 4 0 7 -4 7 -9 0 -5 4 -13 8 -18 5 -4 7 -1 5 7 -3 16 28 18 82 7 14 -3 43
-6 65 -6 30 -1 36 -4 25 -11 -9 -6 -10 -10 -3 -10 6 0 14 4 18 9 3 6 14 9 25
8 20 -1 22 -20 5 -47 -8 -13 -6 -13 8 -2 9 8 16 17 15 20 -2 21 4 31 17 26 13
-5 13 -9 3 -23 -10 -13 -9 -13 8 2 11 9 24 14 27 10 4 -3 7 -1 7 7 0 10 3 10
15 0 8 -7 15 -9 15 -5 0 4 7 2 15 -5 13 -11 14 -10 10 1 -4 11 5 14 40 12 25
0 52 -4 60 -7 8 -3 17 0 21 5 4 6 16 1 32 -13 18 -16 22 -17 12 -4 -14 18 -13
19 8 14 13 -4 22 -2 22 5 0 6 7 2 16 -9 8 -10 13 -13 9 -7 -4 8 0 13 9 13 8 0
17 -6 19 -12 3 -8 6 -5 6 6 1 18 2 18 19 -1 9 -10 13 -13 8 -6 -6 9 -3 13 7
13 8 0 18 -6 20 -12 3 -7 6 -4 6 6 1 20 1 20 17 0 8 -10 13 -14 10 -7 -7 13
98 23 117 11 6 -4 19 -2 28 3 11 6 20 5 24 -1 3 -5 15 -6 28 -1 12 4 30 6 40
3 15 -3 16 -6 5 -20 -7 -10 -1 -7 14 6 23 21 27 22 42 7 10 -11 16 -12 16 -4
0 7 8 5 22 -7 19 -16 20 -16 9 -1 -18 23 -8 33 13 12 9 -9 16 -12 16 -7 0 13
45 21 61 11 7 -4 21 -3 30 2 11 6 20 5 24 -1 3 -5 15 -6 28 -1 12 4 30 6 40 3
15 -3 16 -6 5 -20 -7 -10 -1 -7 14 6 23 21 27 22 42 7 10 -11 16 -12 16 -4 0
7 8 5 22 -7 19 -16 20 -16 9 -1 -18 23 -8 33 13 12 9 -9 16 -12 16 -6 0 5 9 8
20 6 11 -2 22 1 26 6 4 6 14 3 27 -8 11 -10 17 -12 13 -6 -8 14 -3 15 59 15
69 0 76 -2 70 -15 -4 -6 1 -3 9 7 9 11 16 15 16 9 0 -7 9 -9 23 -5 18 4 20 3
12 -9 -5 -8 -2 -6 8 4 9 11 17 15 17 10 0 -10 36 -11 46 -1 3 4 17 3 30 -2 13
-5 26 -6 28 -1 3 5 17 6 31 4 15 -3 22 -10 18 -17 -4 -6 1 -5 10 2 13 11 152
20 177 12 22 -7 41 -7 46 2 3 5 15 2 27 -9 11 -10 17 -12 13 -5 -8 13 -3 14
59 14 69 0 76 -2 70 -15 -4 -6 1 -3 9 7 9 11 16 15 16 9 0 -7 9 -9 23 -5 18 4
20 3 12 -9 -5 -8 -2 -6 8 4 9 11 17 15 17 10 0 -10 36 -11 46 -1 3 4 17 3 30
-2 13 -5 26 -6 28 -1 3 5 17 6 31 4 15 -3 22 -10 18 -17 -5 -8 -3 -8 8 1 25
20 104 21 94 0 -4 -6 0 -4 8 5 8 10 16 15 19 13 9 -9 48 -14 48 -7 0 8 69 7
77 -2 3 -3 14 -1 24 4 11 7 20 7 24 0 3 -5 15 -6 28 -1 12 4 30 6 40 3 15 -3
16 -6 5 -20 -7 -10 -1 -7 14 6 23 21 27 22 42 7 10 -11 16 -12 16 -4 0 7 8 5
22 -7 19 -16 20 -16 9 -1 -18 23 -8 33 13 12 9 -9 16 -12 16 -7 0 13 45 21 61
11 7 -4 21 -3 30 2 11 6 20 5 24 -1 3 -5 15 -6 28 -1 12 4 30 6 40 3 15 -3 16
-6 5 -20 -7 -10 -1 -7 14 6 23 21 27 22 42 7 10 -11 16 -12 16 -4 0 7 8 5 22
-7 19 -16 20 -16 9 -1 -18 23 -8 33 13 12 10 -10 16 -12 16 -5 0 8 9 10 25 6
14 -4 25 -2 25 2 0 5 11 7 25 4 15 -2 22 -9 18 -16 -4 -6 1 -5 11 3 9 8 33 14
52 14 20 0 40 -6 45 -14 5 -8 9 -9 9 -3 0 20 39 24 50 6 6 -12 9 -13 10 -4 0
10 12 13 45 9 25 -2 48 0 51 5 3 5 15 1 27 -9 11 -10 17 -12 13 -5 -8 13 -3
14 59 14 69 0 76 -2 70 -14 -4 -7 1 -4 9 6 9 11 16 15 16 9 0 -7 9 -9 23 -5
18 4 20 3 12 -9 -5 -8 -2 -6 8 4 9 11 17 15 17 9 0 -10 36 -8 69 3 9 4 11 0 7
-11 -5 -13 -3 -14 6 -6 17 14 50 18 66 9 6 -5 12 -5 12 -1 0 3 8 0 17 -7 11
-10 14 -10 9 -2 -4 7 -2 13 3 14 20 1 91 1 94 -1 11 -7 38 -7 42 1 3 4 18 4
33 -2 16 -6 28 -6 30 -1 1 5 14 7 27 4 15 -2 22 -9 18 -16 -4 -6 1 -4 12 4 20
16 56 15 67 -4 5 -7 8 -4 8 8 0 18 1 18 18 -1 9 -10 13 -13 8 -6 -6 9 -3 13 7
13 8 0 18 -6 20 -12 3 -7 6 -4 6 6 1 20 1 20 17 0 8 -10 13 -14 10 -7 -7 13
98 23 117 11 6 -4 19 -2 28 3 11 5 20 5 23 0 3 -5 16 -7 29 -3 19 5 20 3 10
-10 -10 -12 -10 -15 2 -15 8 0 12 4 9 8 -2 4 5 13 16 19 22 12 27 1 8 -20 -7
-8 -3 -6 10 4 12 11 22 16 22 12 0 -4 10 -2 22 5 18 10 20 9 14 -6 -5 -15 -4
-16 9 -5 8 7 15 10 15 7 0 -3 13 -2 29 3 19 5 33 4 40 -3 6 -6 11 -7 11 -3 0
5 8 2 17 -5 11 -10 14 -10 9 -1 -7 12 -5 13 42 15 31 1 55 -10 48 -22 -3 -4 1
-8 9 -8 10 0 12 4 5 12 -8 9 -6 14 5 19 8 3 15 0 15 -6 0 -7 5 -6 15 2 12 10
15 10 15 -1 0 -11 2 -11 10 1 9 13 11 13 20 0 8 -12 10 -12 10 -1 0 9 9 12 29
9 17 -2 28 -1 25 4 -3 4 2 8 11 8 10 0 13 -5 9 -12 -5 -8 -3 -8 7 -2 19 12
159 42 153 33 -2 -4 0 -11 6 -14 6 -4 9 -1 8 5 -4 18 77 41 93 26 9 -8 10 -8
5 2 -6 10 -3 13 19 12 3 0 18 6 35 15 36 19 46 19 31 2 -8 -10 -7 -14 4 -14 7
0 13 5 12 10 -3 15 45 37 67 31 11 -4 16 -2 12 4 -7 12 33 28 86 36 10 1 21 6
25 11 5 4 2 5 -6 0 -10 -6 -12 -4 -6 4 4 7 16 11 26 8 12 -3 19 0 19 10 0 8 4
12 9 8 5 -3 13 0 16 6 4 5 14 8 22 5 8 -3 12 -2 9 3 -7 11 49 32 60 23 4 -4 4
-1 0 6 -4 7 0 15 11 19 17 6 35 17 103 63 32 22 45 25 35 11 -3 -5 -2 -12 3
-15 4 -2 9 5 9 16 2 23 32 49 50 43 7 -2 15 1 19 7 5 7 2 8 -7 4 -8 -5 4 8 26
28 42 37 67 48 44 19 -11 -15 -10 -14 9 1 24 21 29 31 10 21 -7 -4 2 7 21 24
19 17 39 27 44 24 6 -3 7 -1 4 4 -8 13 27 46 37 36 4 -5 6 -3 4 3 -1 7 22 37
53 67 31 31 54 59 50 63 -3 4 2 4 11 1 10 -3 20 -1 24 5 4 7 3 8 -4 4 -19 -11
-14 9 6 27 10 10 22 14 27 10 4 -5 5 -3 2 3 -10 17 21 54 41 48 14 -5 14 -4 2
4 -12 9 -12 14 4 31 10 11 22 18 26 16 4 -3 14 3 21 13 13 15 12 16 -3 3 -19
-14 -23 -5 -9 18 5 8 14 10 21 6 9 -5 11 -4 6 3 -9 15 12 54 24 47 6 -3 7 1 4
9 -3 8 4 24 15 35 12 12 21 23 21 26 0 11 35 80 42 83 4 2 12 19 18 38 6 19
15 32 18 30 4 -2 8 7 9 21 0 14 7 29 15 34 7 5 10 9 5 9 -4 0 0 15 10 33 9 17
18 41 20 51 2 10 11 25 21 33 9 8 11 12 5 8 -17 -8 -16 -4 1 31 8 15 13 31 10
36 -3 4 -1 8 5 8 6 0 7 7 4 17 -4 10 -2 14 4 10 5 -3 9 3 8 16 -1 12 1 27 6
32 8 11 9 16 9 44 0 11 7 26 15 34 11 12 12 17 2 20 -8 3 -6 10 8 22 11 9 14
14 7 10 -9 -5 -11 0 -7 17 3 12 8 39 10 58 2 19 7 60 11 90 4 30 7 65 8 77 0
12 4 19 11 15 5 -3 4 2 -4 11 -9 12 -10 17 -2 17 7 0 9 5 5 12 -9 15 -8 143 1
158 3 5 1 10 -6 10 -8 0 -7 5 2 17 9 11 10 14 2 9 -9 -5 -11 -2 -7 8 3 9 11
13 16 10 6 -4 2 6 -8 22 -13 19 -14 25 -5 19 11 -6 13 -4 8 10 -4 9 -2 24 4
31 10 12 8 13 -7 8 -14 -5 -16 -4 -8 5 7 7 8 29 4 56 -4 24 -3 50 1 57 4 6 5
17 2 22 -8 13 -6 173 2 186 3 5 3 10 -2 10 -9 0 -8 99 1 108 3 3 1 11 -5 18
-6 7 -6 15 -1 18 5 3 6 23 2 45 -4 22 -4 45 1 52 4 7 4 22 -1 34 -5 12 -4 28
0 35 5 8 4 22 -1 32 -5 10 -6 18 -1 18 4 0 8 9 8 20 0 11 -4 20 -9 20 -4 0 -5
5 -1 12 10 16 15 60 6 54 -8 -5 -7 103 1 111 3 3 2 15 -3 28 -6 16 -4 29 7 45
9 13 12 20 6 17 -15 -9 -22 13 -12 39 4 11 4 27 -1 34 -4 7 -4 26 0 41 6 19 5
29 -2 29 -6 0 -5 7 3 17 10 11 10 14 2 9 -10 -5 -11 -1 -4 17 7 17 6 29 -2 37
-10 10 -8 12 7 6 16 -5 17 -4 6 9 -10 12 -10 18 0 30 11 13 10 14 -6 9 -14 -5
-16 -4 -8 5 7 7 8 29 4 56 -4 24 -3 50 1 57 4 7 2 19 -4 27 -10 12 -9 14 7 8
15 -6 17 -5 7 7 -6 8 -11 18 -10 22 1 5 0 14 -1 19 -4 21 0 116 5 125 4 6 3
10 -2 10 -9 0 -8 99 1 108 3 3 1 11 -5 18 -6 7 -6 15 -1 18 5 3 6 23 2 45 -4
22 -4 45 1 52 4 7 4 22 -1 34 -5 12 -4 28 0 35 5 8 4 22 -1 32 -5 10 -6 18 -1
18 4 0 8 9 8 20 0 11 -4 20 -9 20 -4 0 -5 5 -1 12 10 16 15 60 6 54 -8 -5 -7
103 1 111 3 3 2 15 -3 28 -6 16 -4 29 7 45 9 13 12 20 6 17 -15 -9 -22 13 -12
39 4 11 4 27 -1 34 -4 7 -4 26 0 41 6 19 5 29 -2 29 -6 0 -5 7 3 17 10 11 10
14 2 9 -10 -5 -11 -1 -4 17 7 17 6 29 -2 37 -10 10 -8 12 7 6 16 -5 17 -4 6 9
-10 12 -10 18 0 30 11 13 10 14 -6 9 -14 -5 -16 -4 -8 5 7 7 8 29 4 56 -4 24
-3 50 1 57 4 7 2 19 -4 27 -10 12 -9 14 7 8 15 -6 17 -5 7 7 -6 8 -11 18 -10
22 1 5 0 14 -1 19 -4 21 0 116 5 125 4 6 3 10 -2 10 -9 0 -8 99 1 108 3 3 1
11 -5 18 -6 7 -6 15 -1 18 5 3 6 23 2 45 -4 22 -4 45 1 52 4 7 4 22 -1 34 -5
12 -4 28 0 35 5 8 4 22 -1 32 -5 10 -6 18 -1 18 4 0 8 9 8 20 0 11 -4 20 -9
20 -4 0 -5 5 -1 12 10 16 15 60 6 54 -8 -5 -7 103 1 111 3 3 2 15 -3 28 -6 16
-4 29 7 45 9 13 12 20 6 17 -15 -9 -22 13 -12 39 4 11 4 27 -1 34 -4 7 -4 26
0 41 6 19 5 29 -2 29 -6 0 -5 7 3 17 10 11 10 14 2 9 -10 -5 -11 -1 -4 17 7
17 6 29 -2 37 -10 10 -8 12 7 6 16 -5 17 -4 6 9 -10 12 -10 18 0 30 11 13 10
14 -6 9 -14 -5 -16 -4 -8 5 7 7 8 29 4 56 -4 24 -3 50 1 57 4 7 2 19 -4 27
-10 12 -9 14 7 8 16 -6 17 -5 6 8 -7 9 -10 18 -7 22 4 3 2 12 -4 20 -6 7 -7
13 -2 13 10 0 11 35 1 45 -3 3 -2 22 2 41 4 18 4 34 -1 34 -5 0 -4 11 1 24 5
13 6 27 3 30 -8 7 -7 116 1 123 3 3 1 14 -4 24 -6 10 -6 20 -2 23 10 6 9 42
-1 52 -4 4 -2 13 4 20 7 8 7 14 -1 19 -8 5 -5 12 7 22 10 8 13 12 6 9 -15 -8
-27 10 -13 19 8 5 7 11 -1 21 -9 11 -8 18 2 31 10 11 10 14 2 9 -17 -9 -17 6
-1 23 8 8 8 11 2 8 -14 -8 -23 29 -20 84 0 20 -2 35 -6 32 -8 -4 -10 13 -11
75 -1 17 -4 32 -8 32 -3 0 -9 15 -12 33 -3 17 -9 41 -13 51 -6 15 -4 17 7 11
8 -5 6 1 -4 13 -11 11 -16 25 -13 31 3 5 3 11 -2 13 -12 5 -43 109 -35 121 3
6 1 7 -5 3 -7 -4 -12 -1 -12 7 0 8 -16 49 -35 91 -39 85 -40 90 -23 80 7 -4 8
-3 4 5 -4 6 -11 9 -16 6 -7 -4 -19 15 -22 35 -1 3 -12 22 -25 43 -20 32 -22
41 -12 55 11 14 11 15 -1 5 -11 -10 -20 -1 -52 48 -21 33 -36 65 -32 71 4 6 3
8 -3 5 -14 -9 -37 19 -27 34 4 7 3 9 -3 6 -5 -3 -20 8 -33 26 -32 43 -40 52
-78 92 -19 19 -32 35 -29 35 6 0 -148 150 -164 161 -7 4 -9 11 -5 17 3 5 -2 9
-12 8 -9 0 -16 5 -14 12 1 8 -2 11 -6 8 -13 -8 -54 29 -44 39 4 5 1 5 -6 1 -6
-4 -18 -1 -25 6 -8 7 -39 31 -70 52 -31 21 -54 42 -52 47 3 4 0 11 -6 15 -8 4
-9 3 -5 -4 9 -15 3 -15 -29 0 -14 6 -25 15 -25 20 0 4 -6 8 -14 8 -8 0 -21 6
-28 14 -8 7 -24 17 -36 20 -13 4 -19 12 -16 18 4 6 2 8 -4 4 -9 -5 -107 35
-184 75 -10 5 -25 9 -33 9 -8 0 -15 4 -15 8 0 4 -10 8 -22 9 -20 2 -33 6 -93
29 -11 4 -22 8 -25 8 -3 1 -33 8 -67 15 -35 8 -63 18 -63 23 0 5 -4 7 -9 4 -4
-3 -35 -1 -67 4 -105 16 -140 20 -177 22 -21 1 -37 6 -37 12 0 6 -4 5 -9 -3
-6 -9 -11 -10 -15 -2 -4 6 -12 9 -17 5 -17 -10 -59 -12 -65 -2 -3 4 -10 5 -16
2 -14 -9 -163 -9 -176 0 -6 3 -13 2 -17 -3 -3 -6 -11 -8 -18 -6 -30 11 -67 13
-72 4 -4 -5 -13 -5 -24 1 -10 5 -21 7 -24 4 -8 -9 -117 -10 -117 -2 0 4 -11 3
-25 -2 -14 -5 -25 -6 -25 -1 0 8 -19 8 -40 1 -12 -5 -112 0 -120 5 -6 4 -10 3
-10 -2 0 -4 -25 -8 -55 -8 -30 0 -55 3 -55 7 0 4 -13 3 -29 -2 -15 -4 -34 -4
-42 1 -8 4 -19 3 -26 -3 -9 -7 -17 -7 -26 1 -8 6 -17 8 -21 4 -7 -8 -133 -6
-146 2 -5 3 -11 2 -13 -3 -6 -8 -75 -7 -83 1 -3 2 -21 1 -40 -3 -18 -4 -34 -4
-34 1 0 5 -10 5 -22 0 -13 -5 -33 -5 -45 0 -14 5 -23 5 -23 -1 0 -5 -6 -7 -12
-5 -28 10 -128 10 -132 0 -3 -6 -5 -5 -5 2 -1 8 -10 9 -28 4 -16 -5 -37 -5
-48 -1 -12 4 -23 3 -27 -4 -5 -7 -8 -7 -8 -1 0 6 -18 9 -42 8 -24 -2 -60 -4
-81 -6 -21 -1 -43 1 -49 4 -7 4 -20 3 -29 -2 -11 -5 -20 -5 -24 0 -5 9 -42 7
-72 -4 -7 -2 -15 0 -18 5 -3 6 -16 5 -31 0 -14 -6 -23 -7 -21 -2 3 4 -26 7
-64 7 -38 0 -69 -2 -69 -5 0 -3 -17 -4 -37 -3 -78 5 -132 5 -142 -2 -6 -3 -11
-2 -11 3 0 4 -22 6 -50 2 -27 -4 -50 -3 -50 1 0 4 -13 4 -29 -1 -15 -4 -34 -4
-42 1 -8 4 -19 3 -26 -3 -9 -7 -17 -7 -26 1 -8 6 -17 8 -20 4 -9 -8 -113 -7
-127 2 -5 3 -10 2 -10 -4 0 -7 -8 -7 -24 -1 -17 6 -26 5 -30 -3 -3 -9 -5 -9
-5 0 -1 9 -8 10 -25 3 -13 -5 -26 -7 -28 -5 -9 9 -56 12 -68 5 -7 -4 -26 -4
-41 0 -16 5 -29 6 -29 2 0 -4 -25 -7 -55 -7 -30 0 -55 3 -55 7 0 4 -13 3 -29
-2 -15 -4 -34 -4 -42 1 -8 4 -19 3 -26 -3 -9 -7 -17 -7 -26 1 -8 6 -17 8 -21
4 -5 -5 -114 -7 -142 -2 -5 1 -13 0 -19 -1 -24 -5 -175 -1 -185 5 -5 3 -10 3
-10 -2 0 -10 -52 -9 -68 1 -6 3 -13 3 -15 -2 -6 -8 -75 -7 -84 2 -3 3 -14 1
-24 -4 -11 -6 -20 -6 -24 -1 -5 9 -42 7 -72 -4 -7 -2 -15 0 -18 5 -3 6 -16 5
-31 0 -14 -6 -23 -7 -21 -2 3 4 -26 7 -64 7 -38 0 -69 -2 -69 -5 0 -3 -17 -4
-37 -3 -78 5 -132 5 -142 -2 -6 -3 -11 -2 -11 3 0 5 -20 6 -45 2 -25 -4 -45
-3 -45 1 0 5 -11 4 -25 -1 -14 -5 -25 -6 -25 -1 0 10 -26 9 -36 -1 -3 -4 -17
-3 -30 2 -13 5 -26 6 -29 0 -3 -5 -18 -5 -35 0 -17 5 -30 5 -30 1 0 -4 -26 -4
-58 -1 -33 3 -70 3 -83 -1 -13 -3 -34 -2 -45 2 -12 4 -24 6 -26 3z"/>
<path d="M8075 9360 c-3 -5 -1 -10 4 -10 6 0 11 5 11 10 0 6 -2 10 -4 10 -3 0
-8 -4 -11 -10z"/>
<path d="M1540 9040 c-9 -6 -10 -10 -3 -10 6 0 15 5 18 10 8 12 4 12 -15 0z"/>
<path d="M1195 8720 c3 -5 8 -10 11 -10 2 0 4 5 4 10 0 6 -5 10 -11 10 -5 0
-7 -4 -4 -10z"/>
<path d="M9116 8567 c3 -10 9 -15 12 -12 3 3 0 11 -7 18 -10 9 -11 8 -5 -6z"/>
<path d="M1006 8398 c3 -5 10 -6 15 -3 13 9 11 12 -6 12 -8 0 -12 -4 -9 -9z"/>
<path d="M930 8239 c0 -5 5 -7 10 -4 6 3 10 8 10 11 0 2 -4 4 -10 4 -5 0 -10
-5 -10 -11z"/>
<path d="M9345 8080 c-3 -6 1 -7 9 -4 18 7 21 14 7 14 -6 0 -13 -4 -16 -10z"/>
<path d="M816 7918 c3 -5 10 -6 15 -3 13 9 11 12 -6 12 -8 0 -12 -4 -9 -9z"/>
<path d="M796 7778 c3 -5 10 -6 15 -3 13 9 11 12 -6 12 -8 0 -12 -4 -9 -9z"/>
<path d="M777 7735 c-4 -8 -3 -16 1 -19 4 -3 9 4 9 15 2 23 -3 25 -10 4z"/>
<path d="M9430 7726 c0 -2 7 -7 16 -10 8 -3 12 -2 9 4 -6 10 -25 14 -25 6z"/>
<path d="M700 7486 c0 -2 8 -10 18 -17 15 -13 16 -12 3 4 -13 16 -21 21 -21
13z"/>
<path d="M710 7305 c0 -7 30 -13 34 -7 3 4 -4 9 -15 9 -10 1 -19 0 -19 -2z"/>
<path d="M9493 7215 c0 -8 4 -12 9 -9 5 3 6 10 3 15 -9 13 -12 11 -12 -6z"/>
<path d="M630 7186 c0 -2 7 -7 16 -10 8 -3 12 -2 9 4 -6 10 -25 14 -25 6z"/>
<path d="M750 7159 c0 -5 5 -7 10 -4 6 3 10 8 10 11 0 2 -4 4 -10 4 -5 0 -10
-5 -10 -11z"/>
<path d="M9450 6900 c0 -5 5 -10 11 -10 5 0 7 5 4 10 -3 6 -8 10 -11 10 -2 0
-4 -4 -4 -10z"/>
<path d="M725 6880 c-3 -6 1 -7 9 -4 18 7 21 14 7 14 -6 0 -13 -4 -16 -10z"/>
<path d="M775 6700 c-3 -5 -1 -10 4 -10 6 0 11 5 11 10 0 6 -2 10 -4 10 -3 0
-8 -4 -11 -10z"/>
<path d="M750 6620 c0 -5 5 -10 11 -10 5 0 7 5 4 10 -3 6 -8 10 -11 10 -2 0
-4 -4 -4 -10z"/>
<path d="M729 6557 c6 -8 7 -18 3 -22 -4 -5 -1 -5 6 -1 10 6 10 11 1 22 -6 8
-14 14 -16 14 -3 0 0 -6 6 -13z"/>
<path d="M9475 6420 c-3 -5 -1 -10 4 -10 6 0 11 5 11 10 0 6 -2 10 -4 10 -3 0
-8 -4 -11 -10z"/>
<path d="M9574 6406 c1 -8 5 -18 8 -22 4 -3 5 1 4 10 -1 8 -5 18 -8 22 -4 3
-5 -1 -4 -10z"/>
<path d="M726 6378 c3 -5 10 -6 15 -3 13 9 11 12 -6 12 -8 0 -12 -4 -9 -9z"/>
<path d="M746 6322 c-3 -5 1 -9 9 -9 8 0 15 4 15 9 0 4 -4 8 -9 8 -6 0 -12 -4
-15 -8z"/>
<path d="M9496 6302 c-3 -4 4 -9 15 -9 23 -2 25 3 4 10 -8 4 -16 3 -19 -1z"/>
<path d="M9510 6238 c0 -4 4 -8 9 -8 6 0 12 4 15 8 3 5 -1 9 -9 9 -8 0 -15 -4
-15 -9z"/>
<path d="M9496 6178 c3 -4 11 -5 19 -1 21 7 19 12 -4 10 -11 0 -18 -5 -15 -9z"/>
<path d="M775 6140 c-3 -5 -1 -10 4 -10 6 0 11 5 11 10 0 6 -2 10 -4 10 -3 0
-8 -4 -11 -10z"/>
<path d="M737 6035 c-4 -8 -3 -16 1 -19 4 -3 9 4 9 15 2 23 -3 25 -10 4z"/>
<path d="M710 5965 c0 -5 5 -17 10 -25 5 -8 10 -10 10 -5 0 6 -5 17 -10 25 -5
8 -10 11 -10 5z"/>
<path d="M9496 5941 c-3 -5 2 -15 12 -22 15 -12 16 -12 5 2 -7 9 -10 19 -6 22
3 4 4 7 0 7 -3 0 -8 -4 -11 -9z"/>
<path d="M726 5898 c3 -5 10 -6 15 -3 13 9 11 12 -6 12 -8 0 -12 -4 -9 -9z"/>
<path d="M9475 5860 c3 -5 8 -10 11 -10 2 0 4 5 4 10 0 6 -5 10 -11 10 -5 0
-7 -4 -4 -10z"/>
<path d="M676 5802 c-3 -5 1 -9 9 -9 8 0 12 4 9 9 -3 4 -7 8 -9 8 -2 0 -6 -4
-9 -8z"/>
<path d="M9450 5779 c0 -5 5 -7 10 -4 6 3 10 8 10 11 0 2 -4 4 -10 4 -5 0 -10
-5 -10 -11z"/>
<path d="M749 5763 c-13 -16 -12 -17 4 -4 16 13 21 21 13 21 -2 0 -10 -8 -17
-17z"/>
<path d="M737 5635 c-4 -8 -3 -16 1 -19 4 -3 9 4 9 15 2 23 -3 25 -10 4z"/>
<path d="M9450 5620 c0 -5 5 -10 11 -10 5 0 7 5 4 10 -3 6 -8 10 -11 10 -2 0
-4 -4 -4 -10z"/>
<path d="M676 5593 c-6 -14 -5 -15 5 -6 7 7 10 15 7 18 -3 3 -9 -2 -12 -12z"/>
<path d="M775 5260 c3 -5 8 -10 11 -10 2 0 4 5 4 10 0 6 -5 10 -11 10 -5 0 -7
-4 -4 -10z"/>
<path d="M9475 5140 c-3 -5 -1 -10 4 -10 6 0 11 5 11 10 0 6 -2 10 -4 10 -3 0
-8 -4 -11 -10z"/>
<path d="M9574 5126 c1 -8 5 -18 8 -22 4 -3 5 1 4 10 -1 8 -5 18 -8 22 -4 3
-5 -1 -4 -10z"/>
<path d="M775 5100 c-3 -5 -1 -10 4 -10 6 0 11 5 11 10 0 6 -2 10 -4 10 -3 0
-8 -4 -11 -10z"/>
<path d="M750 5020 c0 -5 5 -10 11 -10 5 0 7 5 4 10 -3 6 -8 10 -11 10 -2 0
-4 -4 -4 -10z"/>
<path d="M9496 5022 c-3 -4 4 -9 15 -9 23 -2 25 3 4 10 -8 4 -16 3 -19 -1z"/>
<path d="M729 4957 c6 -8 7 -18 3 -22 -4 -5 -1 -5 6 -1 10 6 10 11 1 22 -6 8
-14 14 -16 14 -3 0 0 -6 6 -13z"/>
<path d="M9510 4958 c0 -4 4 -8 9 -8 6 0 12 4 15 8 3 5 -1 9 -9 9 -8 0 -15 -4
-15 -9z"/>
<path d="M9496 4898 c3 -4 11 -5 19 -1 21 7 19 12 -4 10 -11 0 -18 -5 -15 -9z"/>
<path d="M720 4700 c-12 -7 -10 -9 7 -7 12 0 19 5 17 9 -6 10 -6 10 -24 -2z"/>
<path d="M9496 4661 c-3 -5 2 -15 12 -22 15 -12 16 -12 5 2 -7 9 -10 19 -6 22
3 4 4 7 0 7 -3 0 -8 -4 -11 -9z"/>
<path d="M706 4642 c-3 -5 1 -9 9 -9 8 0 15 4 15 9 0 4 -4 8 -9 8 -6 0 -12 -4
-15 -8z"/>
<path d="M710 4585 c0 -7 30 -13 34 -7 3 4 -4 9 -15 9 -10 1 -19 0 -19 -2z"/>
<path d="M9475 4580 c3 -5 8 -10 11 -10 2 0 4 5 4 10 0 6 -5 10 -11 10 -5 0
-7 -4 -4 -10z"/>
<path d="M9450 4499 c0 -5 5 -7 10 -4 6 3 10 8 10 11 0 2 -4 4 -10 4 -5 0 -10
-5 -10 -11z"/>
<path d="M726 4458 c3 -5 10 -6 15 -3 13 9 11 12 -6 12 -8 0 -12 -4 -9 -9z"/>
<path d="M746 4402 c-3 -5 1 -9 9 -9 8 0 15 4 15 9 0 4 -4 8 -9 8 -6 0 -12 -4
-15 -8z"/>
<path d="M9450 4340 c0 -5 5 -10 11 -10 5 0 7 5 4 10 -3 6 -8 10 -11 10 -2 0
-4 -4 -4 -10z"/>
<path d="M775 4220 c-3 -5 -1 -10 4 -10 6 0 11 5 11 10 0 6 -2 10 -4 10 -3 0
-8 -4 -11 -10z"/>
<path d="M737 4115 c-4 -8 -3 -16 1 -19 4 -3 9 4 9 15 2 23 -3 25 -10 4z"/>
<path d="M710 4045 c0 -5 5 -17 10 -25 5 -8 10 -10 10 -5 0 6 -5 17 -10 25 -5
8 -10 11 -10 5z"/>
<path d="M726 3978 c3 -5 10 -6 15 -3 13 9 11 12 -6 12 -8 0 -12 -4 -9 -9z"/>
<path d="M676 3882 c-3 -5 1 -9 9 -9 8 0 12 4 9 9 -3 4 -7 8 -9 8 -2 0 -6 -4
-9 -8z"/>
<path d="M9475 3860 c-3 -5 -1 -10 4 -10 6 0 11 5 11 10 0 6 -2 10 -4 10 -3 0
-8 -4 -11 -10z"/>
<path d="M746 3845 c-11 -8 -15 -15 -9 -15 6 0 16 7 23 15 16 19 11 19 -14 0z"/>
<path d="M9574 3846 c1 -8 5 -18 8 -22 4 -3 5 1 4 10 -1 8 -5 18 -8 22 -4 3
-5 -1 -4 -10z"/>
<path d="M9496 3742 c-3 -4 4 -9 15 -9 23 -2 25 3 4 10 -8 4 -16 3 -19 -1z"/>
<path d="M725 3680 c-3 -6 1 -7 9 -4 18 7 21 14 7 14 -6 0 -13 -4 -16 -10z"/>
<path d="M9510 3678 c0 -4 4 -8 9 -8 6 0 12 4 15 8 3 5 -1 9 -9 9 -8 0 -15 -4
-15 -9z"/>
<path d="M9496 3618 c3 -4 11 -5 19 -1 21 7 19 12 -4 10 -11 0 -18 -5 -15 -9z"/>
<path d="M775 3500 c-3 -5 -1 -10 4 -10 6 0 11 5 11 10 0 6 -2 10 -4 10 -3 0
-8 -4 -11 -10z"/>
<path d="M750 3420 c0 -5 5 -10 11 -10 5 0 7 5 4 10 -3 6 -8 10 -11 10 -2 0
-4 -4 -4 -10z"/>
<path d="M9496 3381 c-3 -5 2 -15 12 -22 15 -12 16 -12 5 2 -7 9 -10 19 -6 22
3 4 4 7 0 7 -3 0 -8 -4 -11 -9z"/>
<path d="M729 3357 c6 -8 7 -18 3 -22 -4 -5 -1 -5 6 -1 10 6 10 11 1 22 -6 8
-14 14 -16 14 -3 0 0 -6 6 -13z"/>
<path d="M9475 3300 c3 -5 8 -10 11 -10 2 0 4 5 4 10 0 6 -5 10 -11 10 -5 0
-7 -4 -4 -10z"/>
<path d="M9450 3219 c0 -5 5 -7 10 -4 6 3 10 8 10 11 0 2 -4 4 -10 4 -5 0 -10
-5 -10 -11z"/>
<path d="M674 3126 c1 -8 5 -18 8 -22 4 -3 5 1 4 10 -1 8 -5 18 -8 22 -4 3 -5
-1 -4 -10z"/>
<path d="M9450 3060 c0 -5 5 -10 11 -10 5 0 7 5 4 10 -3 6 -8 10 -11 10 -2 0
-4 -4 -4 -10z"/>
<path d="M750 3019 c0 -5 5 -7 10 -4 6 3 10 8 10 11 0 2 -4 4 -10 4 -5 0 -10
-5 -10 -11z"/>
<path d="M9559 2953 c-13 -16 -12 -17 4 -4 9 7 17 15 17 17 0 8 -8 3 -21 -13z"/>
<path d="M745 2880 c-3 -6 1 -7 9 -4 18 7 21 14 7 14 -6 0 -13 -4 -16 -10z"/>
<path d="M749 2803 c-13 -16 -12 -17 4 -4 9 7 17 15 17 17 0 8 -8 3 -21 -13z"/>
<path d="M9450 2779 c0 -5 5 -7 10 -4 6 3 10 8 10 11 0 2 -4 4 -10 4 -5 0 -10
-5 -10 -11z"/>
<path d="M750 2739 c0 -5 5 -7 10 -4 6 3 10 8 10 11 0 2 -4 4 -10 4 -5 0 -10
-5 -10 -11z"/>
<path d="M9450 2619 c0 -5 5 -7 10 -4 6 3 10 8 10 11 0 2 -4 4 -10 4 -5 0 -10
-5 -10 -11z"/>
<path d="M776 2538 c3 -5 10 -6 15 -3 13 9 11 12 -6 12 -8 0 -12 -4 -9 -9z"/>
<path d="M9555 2520 c3 -5 8 -10 11 -10 2 0 4 5 4 10 0 6 -5 10 -11 10 -5 0
-7 -4 -4 -10z"/>
<path d="M776 2507 c3 -10 9 -15 12 -12 3 3 0 11 -7 18 -10 9 -11 8 -5 -6z"/>
<path d="M9450 2500 c0 -5 5 -10 11 -10 5 0 7 5 4 10 -3 6 -8 10 -11 10 -2 0
-4 -4 -4 -10z"/>
<path d="M774 2456 c1 -8 5 -18 8 -22 4 -3 5 1 4 10 -1 8 -5 18 -8 22 -4 3 -5
-1 -4 -10z"/>
<path d="M9393 2325 c0 -8 4 -15 9 -15 4 0 8 4 8 9 0 6 -4 12 -8 15 -5 3 -9
-1 -9 -9z"/>
<path d="M9430 2320 c0 -5 5 -10 11 -10 5 0 7 5 4 10 -3 6 -8 10 -11 10 -2 0
-4 -4 -4 -10z"/>
<path d="M9470 2319 c0 -5 5 -7 10 -4 6 3 10 8 10 11 0 2 -4 4 -10 4 -5 0 -10
-5 -10 -11z"/>
<path d="M829 2283 c-13 -16 -12 -17 4 -4 9 7 17 15 17 17 0 8 -8 3 -21 -13z"/>
<path d="M9390 2281 c0 -6 4 -13 10 -16 6 -3 7 1 4 9 -7 18 -14 21 -14 7z"/>
<path d="M856 2122 c-2 -4 -1 -14 4 -22 7 -11 9 -9 7 8 -1 24 -3 26 -11 14z"/>
<path d="M9435 2120 c-3 -5 -1 -10 4 -10 6 0 11 5 11 10 0 6 -2 10 -4 10 -3 0
-8 -4 -11 -10z"/>
<path d="M845 2040 c-3 -6 1 -7 9 -4 18 7 21 14 7 14 -6 0 -13 -4 -16 -10z"/>
<path d="M9296 2013 c-6 -14 -5 -15 5 -6 7 7 10 15 7 18 -3 3 -9 -2 -12 -12z"/>
<path d="M9326 2018 c3 -5 10 -6 15 -3 13 9 11 12 -6 12 -8 0 -12 -4 -9 -9z"/>
<path d="M936 1978 c3 -5 10 -6 15 -3 13 9 11 12 -6 12 -8 0 -12 -4 -9 -9z"/>
<path d="M9290 1980 c0 -5 5 -10 11 -10 5 0 7 5 4 10 -3 6 -8 10 -11 10 -2 0
-4 -4 -4 -10z"/>
<path d="M9290 1939 c0 -5 5 -7 10 -4 6 3 10 8 10 11 0 2 -4 4 -10 4 -5 0 -10
-5 -10 -11z"/>
<path d="M975 1860 c3 -5 8 -10 11 -10 2 0 4 5 4 10 0 6 -5 10 -11 10 -5 0 -7
-4 -4 -10z"/>
<path d="M1010 1861 c0 -6 4 -13 10 -16 6 -3 7 1 4 9 -7 18 -14 21 -14 7z"/>
<path d="M955 1811 c-3 -5 -2 -12 3 -15 5 -3 9 1 9 9 0 17 -3 19 -12 6z"/>
<path d="M9193 1785 c0 -8 4 -12 9 -9 5 3 6 10 3 15 -9 13 -12 11 -12 -6z"/>
<path d="M9170 1700 c0 -5 5 -10 11 -10 5 0 7 5 4 10 -3 6 -8 10 -11 10 -2 0
-4 -4 -4 -10z"/>
<path d="M1071 1687 c-8 -10 -7 -14 2 -14 8 0 14 6 14 14 0 7 -1 13 -2 13 -2
0 -8 -6 -14 -13z"/>
<path d="M1136 1582 c-3 -5 1 -9 9 -9 8 0 12 4 9 9 -3 4 -7 8 -9 8 -2 0 -6 -4
-9 -8z"/>
<path d="M9115 1569 c-4 -6 -5 -12 -2 -15 2 -3 7 2 10 11 7 17 1 20 -8 4z"/>
<path d="M1120 1520 c-9 -6 -10 -10 -3 -10 6 0 15 5 18 10 8 12 4 12 -15 0z"/>
<path d="M1170 1520 c0 -5 5 -10 11 -10 5 0 7 5 4 10 -3 6 -8 10 -11 10 -2 0
-4 -4 -4 -10z"/>
<path d="M1186 1442 c-3 -5 1 -9 9 -9 8 0 12 4 9 9 -3 4 -7 8 -9 8 -2 0 -6 -4
-9 -8z"/>
<path d="M1280 1380 c-12 -7 -10 -9 7 -7 12 0 19 5 17 9 -6 10 -6 10 -24 -2z"/>
<path d="M1330 1339 c0 -5 5 -7 10 -4 6 3 10 8 10 11 0 2 -4 4 -10 4 -5 0 -10
-5 -10 -11z"/>
<path d="M8810 1260 c0 -5 5 -10 11 -10 5 0 7 5 4 10 -3 6 -8 10 -11 10 -2 0
-4 -4 -4 -10z"/>
<path d="M1500 1246 c0 -2 8 -10 18 -17 15 -13 16 -12 3 4 -13 16 -21 21 -21
13z"/>
<path d="M1549 1217 c6 -8 7 -18 3 -22 -4 -5 -1 -5 6 -1 10 6 10 11 1 22 -6 8
-14 14 -16 14 -3 0 0 -6 6 -13z"/>
<path d="M1470 1216 c0 -2 8 -10 18 -17 15 -13 16 -12 3 4 -13 16 -21 21 -21
13z"/>
<path d="M1513 1195 c0 -8 4 -12 9 -9 5 3 6 10 3 15 -9 13 -12 11 -12 -6z"/>
<path d="M8696 1198 c3 -5 10 -6 15 -3 13 9 11 12 -6 12 -8 0 -12 -4 -9 -9z"/>
<path d="M8669 1163 c-13 -16 -12 -17 4 -4 16 13 21 21 13 21 -2 0 -10 -8 -17
-17z"/>
<path d="M1570 1139 c0 -5 5 -7 10 -4 6 3 10 8 10 11 0 2 -4 4 -10 4 -5 0 -10
-5 -10 -11z"/>
<path d="M1676 1127 c3 -10 9 -15 12 -12 3 3 0 11 -7 18 -10 9 -11 8 -5 -6z"/>
<path d="M8596 1087 c3 -10 9 -15 12 -12 3 3 0 11 -7 18 -10 9 -11 8 -5 -6z"/>
<path d="M1753 1065 c0 -8 4 -12 9 -9 5 3 6 10 3 15 -9 13 -12 11 -12 -6z"/>
<path d="M1810 1041 c0 -6 4 -13 10 -16 6 -3 7 1 4 9 -7 18 -14 21 -14 7z"/>
<path d="M8530 1040 c0 -5 5 -10 11 -10 5 0 7 5 4 10 -3 6 -8 10 -11 10 -2 0
-4 -4 -4 -10z"/>
<path d="M8453 1025 c0 -8 4 -12 9 -9 5 3 6 10 3 15 -9 13 -12 11 -12 -6z"/>
<path d="M1735 1020 c-3 -5 -1 -10 4 -10 6 0 11 5 11 10 0 6 -2 10 -4 10 -3 0
-8 -4 -11 -10z"/>
<path d="M8406 998 c3 -5 10 -6 15 -3 13 9 11 12 -6 12 -8 0 -12 -4 -9 -9z"/>
<path d="M1775 980 c-3 -5 -1 -10 4 -10 6 0 11 5 11 10 0 6 -2 10 -4 10 -3 0
-8 -4 -11 -10z"/>
<path d="M1906 978 c3 -5 10 -6 15 -3 13 9 11 12 -6 12 -8 0 -12 -4 -9 -9z"/>
<path d="M1815 959 c-3 -4 2 -6 10 -5 21 3 28 13 10 13 -9 0 -18 -4 -20 -8z"/>
<path d="M1870 961 c0 -6 4 -13 10 -16 6 -3 7 1 4 9 -7 18 -14 21 -14 7z"/>
<path d="M8273 945 c0 -8 4 -12 9 -9 5 3 6 10 3 15 -9 13 -12 11 -12 -6z"/>
<path d="M1986 938 c3 -5 10 -6 15 -3 13 9 11 12 -6 12 -8 0 -12 -4 -9 -9z"/>
<path d="M1947 919 c7 -7 15 -10 18 -7 3 3 -2 9 -12 12 -14 6 -15 5 -6 -5z"/>
<path d="M8174 918 c-4 -7 -4 -10 1 -6 4 4 15 2 24 -5 14 -11 14 -10 2 6 -16
20 -18 21 -27 5z"/>
<path d="M8114 880 c0 -13 4 -16 10 -10 7 7 7 13 0 20 -6 6 -10 3 -10 -10z"/>
<path d="M8393 885 c0 -8 4 -12 9 -9 5 3 6 10 3 15 -9 13 -12 11 -12 -6z"/>
<path d="M2166 878 c3 -5 9 -7 12 -4 3 3 12 0 21 -6 13 -10 14 -10 4 2 -15 16
-46 23 -37 8z"/>
<path d="M8330 886 c0 -2 7 -7 16 -10 8 -3 12 -2 9 4 -6 10 -25 14 -25 6z"/>
<path d="M2055 860 c3 -5 8 -10 11 -10 2 0 4 5 4 10 0 6 -5 10 -11 10 -5 0 -7
-4 -4 -10z"/>
<path d="M2226 862 c-3 -5 1 -9 9 -9 8 0 12 4 9 9 -3 4 -7 8 -9 8 -2 0 -6 -4
-9 -8z"/>
<path d="M2293 846 c0 -8 5 -14 11 -13 6 1 10 -4 8 -11 -1 -8 2 -11 8 -7 8 5
6 13 -6 26 -21 23 -21 23 -21 5z"/>
<path d="M7899 833 c-12 -16 -12 -17 2 -6 9 7 20 9 24 5 5 -4 5 -1 1 6 -9 16
-11 15 -27 -5z"/>
<path d="M8027 839 c7 -7 15 -10 18 -7 3 3 -2 9 -12 12 -14 6 -15 5 -6 -5z"/>
<path d="M2349 823 c-13 -16 -12 -17 4 -4 16 13 21 21 13 21 -2 0 -10 -8 -17
-17z"/>
<path d="M2126 822 c-3 -5 1 -9 9 -9 8 0 12 4 9 9 -3 4 -7 8 -9 8 -2 0 -6 -4
-9 -8z"/>
<path d="M2175 820 c3 -5 8 -10 11 -10 2 0 4 5 4 10 0 6 -5 10 -11 10 -5 0 -7
-4 -4 -10z"/>
<path d="M7794 809 c-3 -6 -2 -15 3 -20 5 -5 9 -1 9 11 0 23 -2 24 -12 9z"/>
<path d="M2355 800 c-3 -5 -1 -10 4 -10 6 0 11 5 11 10 0 6 -2 10 -4 10 -3 0
-8 -4 -11 -10z"/>
<path d="M2496 802 c-3 -5 1 -9 9 -9 8 0 12 4 9 9 -3 4 -7 8 -9 8 -2 0 -6 -4
-9 -8z"/>
<path d="M7736 802 c-3 -5 1 -9 9 -9 8 0 12 4 9 9 -3 4 -7 8 -9 8 -2 0 -6 -4
-9 -8z"/>
<path d="M3351 787 c-8 -10 -7 -14 2 -14 8 0 14 6 14 14 0 7 -1 13 -2 13 -2 0
-8 -6 -14 -13z"/>
<path d="M3671 787 c-8 -10 -7 -14 2 -14 8 0 14 6 14 14 0 7 -1 13 -2 13 -2 0
-8 -6 -14 -13z"/>
<path d="M4190 796 c0 -2 8 -10 18 -17 15 -13 16 -12 3 4 -13 16 -21 21 -21
13z"/>
<path d="M4830 796 c0 -2 8 -10 18 -17 15 -13 16 -12 3 4 -13 16 -21 21 -21
13z"/>
<path d="M5271 787 c-8 -10 -7 -14 2 -14 8 0 14 6 14 14 0 7 -1 13 -2 13 -2 0
-8 -6 -14 -13z"/>
<path d="M5591 787 c-8 -10 -7 -14 2 -14 8 0 14 6 14 14 0 7 -1 13 -2 13 -2 0
-8 -6 -14 -13z"/>
<path d="M5989 783 c-13 -16 -12 -17 4 -4 9 7 17 15 17 17 0 8 -8 3 -21 -13z"/>
<path d="M2295 780 c-3 -5 -1 -10 4 -10 6 0 11 5 11 10 0 6 -2 10 -4 10 -3 0
-8 -4 -11 -10z"/>
<path d="M2832 771 c7 -9 13 -18 15 -20 1 -2 1 5 0 16 0 11 -7 20 -14 20 -10
0 -10 -4 -1 -16z"/>
<path d="M3194 772 c11 -12 21 -20 24 -17 3 3 12 -1 21 -8 14 -11 14 -10 2 6
-8 9 -16 15 -19 12 -3 -3 -15 3 -26 12 -21 18 -21 18 -2 -5z"/>
<path d="M3957 768 c19 -21 31 -25 14 -5 -6 8 -9 16 -6 19 3 2 -2 5 -10 5 -13
0 -13 -3 2 -19z"/>
<path d="M3989 777 c6 -8 7 -18 3 -22 -4 -5 -1 -5 6 -1 10 6 10 11 1 22 -6 8
-14 14 -16 14 -3 0 0 -6 6 -13z"/>
<path d="M4323 778 c-11 -19 -13 -39 -1 -32 5 3 7 9 4 12 -3 3 -1 11 5 19 6 7
9 13 6 13 -3 0 -9 -6 -14 -12z"/>
<path d="M4353 767 c-1 -11 -1 -18 0 -16 2 2 8 11 15 20 9 12 9 16 -1 16 -7 0
-14 -9 -14 -20z"/>
<path d="M4432 771 c7 -9 13 -18 15 -20 1 -2 1 5 0 16 0 11 -7 20 -14 20 -10
0 -10 -4 -1 -16z"/>
<path d="M4597 768 c19 -21 31 -25 14 -5 -6 8 -9 16 -6 19 3 2 -2 5 -10 5 -13
0 -13 -3 2 -19z"/>
<path d="M4629 777 c6 -8 7 -18 3 -22 -4 -5 -1 -5 6 -1 10 6 10 11 1 22 -6 8
-14 14 -16 14 -3 0 0 -6 6 -13z"/>
<path d="M4963 778 c-11 -19 -12 -37 -3 -43 5 -3 7 3 5 12 -1 10 2 24 8 31 5
6 7 12 4 12 -3 0 -9 -6 -14 -12z"/>
<path d="M4993 767 c-1 -11 -1 -18 0 -16 2 2 8 11 15 20 9 12 9 16 -1 16 -7 0
-14 -9 -14 -20z"/>
<path d="M5820 780 c-9 -6 -10 -10 -3 -10 6 0 15 5 18 10 8 12 4 12 -15 0z"/>
<path d="M5880 780 c-9 -6 -10 -10 -3 -10 6 0 15 5 18 10 8 12 4 12 -15 0z"/>
<path d="M6197 768 c19 -21 31 -25 14 -5 -6 8 -9 16 -6 19 3 2 -2 5 -10 5 -13
0 -13 -3 2 -19z"/>
<path d="M6229 777 c6 -8 7 -18 3 -22 -4 -5 -1 -5 6 -1 10 6 10 11 1 22 -6 8
-14 14 -16 14 -3 0 0 -6 6 -13z"/>
<path d="M6480 775 c-7 -9 -11 -17 -9 -20 3 -2 10 5 17 15 14 24 10 26 -8 5z"/>
<path d="M6592 771 c7 -9 13 -18 15 -20 1 -2 1 5 0 16 0 11 -7 20 -14 20 -10
0 -10 -4 -1 -16z"/>
<path d="M6780 780 c-9 -6 -10 -10 -3 -10 6 0 15 5 18 10 8 12 4 12 -15 0z"/>
<path d="M6840 780 c-9 -6 -10 -10 -3 -10 6 0 15 5 18 10 8 12 4 12 -15 0z"/>
<path d="M7034 772 c11 -12 21 -20 24 -17 3 3 12 -1 21 -8 14 -11 14 -10 2 6
-8 9 -16 15 -19 12 -3 -3 -15 3 -26 12 -21 18 -21 18 -2 -5z"/>
<path d="M7346 782 c-2 -4 4 -8 14 -8 10 0 16 4 14 8 -3 4 -9 8 -14 8 -5 0
-11 -4 -14 -8z"/>
<path d="M7665 780 c-3 -6 1 -7 9 -4 18 7 21 14 7 14 -6 0 -13 -4 -16 -10z"/>
<path d="M7955 779 c-3 -4 2 -6 10 -5 21 3 28 13 10 13 -9 0 -18 -4 -20 -8z"/>
<path d="M8030 780 c0 -5 5 -10 11 -10 5 0 7 5 4 10 -3 6 -8 10 -11 10 -2 0
-4 -4 -4 -10z"/>
<path d="M2936 767 c3 -10 9 -15 12 -12 3 3 0 11 -7 18 -10 9 -11 8 -5 -6z"/>
<path d="M2990 777 c0 -2 6 -10 14 -16 11 -9 16 -9 22 1 4 7 4 10 -1 6 -4 -4
-14 -3 -22 3 -7 6 -13 9 -13 6z"/>
<path d="M3315 770 c-4 -6 -11 -7 -17 -4 -7 4 -8 2 -4 -5 6 -9 11 -9 22 0 14
11 18 19 10 19 -3 0 -8 -5 -11 -10z"/>
<path d="M3404 758 l-19 -23 23 19 c21 18 27 26 19 26 -2 0 -12 -10 -23 -22z"/>
<path d="M3635 770 c-4 -6 -11 -7 -17 -4 -7 4 -8 2 -4 -5 6 -9 11 -9 22 0 14
11 18 19 10 19 -3 0 -8 -5 -11 -10z"/>
<path d="M3724 758 l-19 -23 23 19 c21 18 27 26 19 26 -2 0 -12 -10 -23 -22z"/>
<path d="M3850 776 c0 -2 8 -10 18 -17 15 -13 16 -12 3 4 -13 16 -21 21 -21
13z"/>
<path d="M3894 760 c0 -13 4 -16 10 -10 7 7 7 13 0 20 -6 6 -10 3 -10 -10z"/>
<path d="M4170 776 c0 -2 8 -10 18 -17 15 -13 16 -12 3 4 -13 16 -21 21 -21
13z"/>
<path d="M4490 776 c0 -2 8 -10 18 -17 15 -13 16 -12 3 4 -13 16 -21 21 -21
13z"/>
<path d="M4534 760 c0 -13 4 -16 10 -10 7 7 7 13 0 20 -6 6 -10 3 -10 -10z"/>
<path d="M4823 762 c10 -10 14 -22 10 -27 -5 -4 -2 -5 5 -1 11 6 10 12 -4 27
-9 10 -19 19 -22 19 -3 0 2 -8 11 -18z"/>
<path d="M5119 767 c8 -9 16 -15 19 -12 3 3 12 -1 21 -8 14 -11 14 -10 2 6 -8
9 -16 15 -19 12 -3 -3 -12 1 -21 8 -14 11 -14 10 -2 -6z"/>
<path d="M5235 770 c-4 -6 -11 -7 -17 -4 -7 4 -8 2 -4 -5 6 -9 11 -9 22 0 14
11 18 19 10 19 -3 0 -8 -5 -11 -10z"/>
<path d="M5324 758 l-19 -23 23 19 c12 11 22 21 22 23 0 8 -8 2 -26 -19z"/>
<path d="M5555 770 c-4 -6 -11 -7 -17 -4 -7 4 -8 2 -4 -5 6 -9 11 -9 22 0 14
11 18 19 10 19 -3 0 -8 -5 -11 -10z"/>
<path d="M5644 758 l-19 -23 23 19 c12 11 22 21 22 23 0 8 -8 2 -26 -19z"/>
<path d="M6090 776 c0 -2 8 -10 18 -17 15 -13 16 -12 3 4 -13 16 -21 21 -21
13z"/>
<path d="M6134 760 c0 -13 4 -16 10 -10 7 7 7 13 0 20 -6 6 -10 3 -10 -10z"/>
<path d="M6533 767 c0 -7 11 -13 23 -13 20 0 25 11 6 11 -4 0 -12 3 -18 7 -6
4 -11 1 -11 -5z"/>
<path d="M7155 770 c-4 -6 -11 -7 -17 -4 -7 4 -8 2 -4 -5 6 -9 11 -9 22 0 14
11 18 19 10 19 -3 0 -8 -5 -11 -10z"/>
<path d="M2356 753 c-6 -14 -5 -15 5 -6 7 7 10 15 7 18 -3 3 -9 -2 -12 -12z"/>
<path d="M2419 768 c-5 -18 -6 -38 -1 -34 7 8 12 36 6 36 -2 0 -4 -1 -5 -2z"/>
<path d="M2595 760 c3 -5 8 -10 11 -10 2 0 4 5 4 10 0 6 -5 10 -11 10 -5 0 -7
-4 -4 -10z"/>
<path d="M2625 760 c-3 -6 1 -7 9 -4 18 7 21 14 7 14 -6 0 -13 -4 -16 -10z"/>
<path d="M3456 762 c-3 -5 1 -9 9 -9 8 0 12 4 9 9 -3 4 -7 8 -9 8 -2 0 -6 -4
-9 -8z"/>
<path d="M3526 758 c3 -5 9 -7 12 -4 3 3 12 0 21 -6 13 -10 14 -10 4 2 -15 16
-46 23 -37 8z"/>
<path d="M3776 762 c-3 -5 1 -9 9 -9 8 0 12 4 9 9 -3 4 -7 8 -9 8 -2 0 -6 -4
-9 -8z"/>
<path d="M4386 762 c-2 -4 4 -8 14 -8 10 0 16 4 14 8 -3 4 -9 8 -14 8 -5 0
-11 -4 -14 -8z"/>
<path d="M5030 766 c0 -2 7 -7 16 -10 8 -3 12 -2 9 4 -6 10 -25 14 -25 6z"/>
<path d="M5376 762 c-3 -5 1 -9 9 -9 8 0 12 4 9 9 -3 4 -7 8 -9 8 -2 0 -6 -4
-9 -8z"/>
<path d="M5446 758 c3 -5 9 -7 12 -4 3 3 12 0 21 -6 13 -10 14 -10 4 2 -15 16
-46 23 -37 8z"/>
<path d="M5696 762 c-3 -5 1 -9 9 -9 8 0 12 4 9 9 -3 4 -7 8 -9 8 -2 0 -6 -4
-9 -8z"/>
<path d="M6006 762 c-3 -5 1 -9 9 -9 8 0 12 4 9 9 -3 4 -7 8 -9 8 -2 0 -6 -4
-9 -8z"/>
<path d="M7776 758 c3 -5 10 -6 15 -3 13 9 11 12 -6 12 -8 0 -12 -4 -9 -9z"/>
<path d="M2495 740 c-3 -5 -1 -10 4 -10 6 0 11 5 11 10 0 6 -2 10 -4 10 -3 0
-8 -4 -11 -10z"/>
<path d="M3080 740 c-9 -6 -10 -10 -3 -10 6 0 15 5 18 10 8 12 4 12 -15 0z"/>
<path d="M3480 740 c-9 -6 -10 -10 -3 -10 6 0 15 5 18 10 8 12 4 12 -15 0z"/>
<path d="M3800 740 c-9 -6 -10 -10 -3 -10 6 0 15 5 18 10 8 12 4 12 -15 0z"/>
<path d="M5400 740 c-9 -6 -10 -10 -3 -10 6 0 15 5 18 10 8 12 4 12 -15 0z"/>
<path d="M5720 740 c-9 -6 -10 -10 -3 -10 6 0 15 5 18 10 8 12 4 12 -15 0z"/>
<path d="M5960 740 c-9 -6 -10 -10 -3 -10 6 0 15 5 18 10 8 12 4 12 -15 0z"/>
<path d="M6920 740 c-9 -6 -10 -10 -3 -10 6 0 15 5 18 10 8 12 4 12 -15 0z"/>
<path d="M3435 731 c-3 -5 -2 -12 3 -15 5 -3 9 1 9 9 0 17 -3 19 -12 6z"/>
<path d="M3755 731 c-3 -5 -2 -12 3 -15 5 -3 9 1 9 9 0 17 -3 19 -12 6z"/>
<path d="M4155 729 c-4 -6 -5 -12 -2 -15 2 -3 7 2 10 11 7 17 1 20 -8 4z"/>
<path d="M4795 729 c-4 -6 -5 -12 -2 -15 2 -3 7 2 10 11 7 17 1 20 -8 4z"/>
<path d="M5355 731 c-3 -5 -2 -12 3 -15 5 -3 9 1 9 9 0 17 -3 19 -12 6z"/>
<path d="M5675 731 c-3 -5 -2 -12 3 -15 5 -3 9 1 9 9 0 17 -3 19 -12 6z"/>
<path d="M5793 727 c0 -8 6 -14 14 -14 9 0 10 4 2 14 -6 7 -12 13 -14 13 -1 0
-2 -6 -2 -13z"/>
<path d="M6753 727 c0 -8 6 -14 14 -14 9 0 10 4 2 14 -6 7 -12 13 -14 13 -1 0
-2 -6 -2 -13z"/>
<path d="M7709 723 c-13 -16 -12 -17 4 -4 9 7 17 15 17 17 0 8 -8 3 -21 -13z"/>
<path d="M3216 718 c3 -5 10 -6 15 -3 13 9 11 12 -6 12 -8 0 -12 -4 -9 -9z"/>
<path d="M3536 718 c3 -5 10 -6 15 -3 13 9 11 12 -6 12 -8 0 -12 -4 -9 -9z"/>
<path d="M5136 718 c3 -5 10 -6 15 -3 13 9 11 12 -6 12 -8 0 -12 -4 -9 -9z"/>
<path d="M5456 718 c3 -5 10 -6 15 -3 13 9 11 12 -6 12 -8 0 -12 -4 -9 -9z"/>
<path d="M5833 715 c0 -8 4 -12 9 -9 5 3 6 10 3 15 -9 13 -12 11 -12 -6z"/>
<path d="M6390 718 c0 -4 4 -8 9 -8 6 0 12 4 15 8 3 5 -1 9 -9 9 -8 0 -15 -4
-15 -9z"/>
<path d="M6793 715 c0 -8 4 -12 9 -9 5 3 6 10 3 15 -9 13 -12 11 -12 -6z"/>
<path d="M7056 718 c3 -5 10 -6 15 -3 13 9 11 12 -6 12 -8 0 -12 -4 -9 -9z"/>
<path d="M7476 713 c-6 -14 -5 -15 5 -6 7 7 10 15 7 18 -3 3 -9 -2 -12 -12z"/>
<path d="M7550 720 c0 -5 5 -10 11 -10 5 0 7 5 4 10 -3 6 -8 10 -11 10 -2 0
-4 -4 -4 -10z"/>
<path d="M7750 721 c0 -6 4 -13 10 -16 6 -3 7 1 4 9 -7 18 -14 21 -14 7z"/>
<path d="M7835 720 c3 -5 8 -10 11 -10 2 0 4 5 4 10 0 6 -5 10 -11 10 -5 0 -7
-4 -4 -10z"/>
<path d="M2973 705 c0 -8 4 -12 9 -9 5 3 6 10 3 15 -9 13 -12 11 -12 -6z"/>
<path d="M3095 711 c-3 -5 -2 -12 3 -15 5 -3 9 1 9 9 0 17 -3 19 -12 6z"/>
<path d="M3835 710 c-4 -6 -11 -7 -17 -4 -7 4 -8 2 -4 -5 6 -9 11 -9 22 0 14
11 18 19 10 19 -3 0 -8 -5 -11 -10z"/>
<path d="M4213 705 c0 -8 4 -12 9 -9 5 3 6 10 3 15 -9 13 -12 11 -12 -6z"/>
<path d="M4853 705 c0 -8 4 -12 9 -9 5 3 6 10 3 15 -9 13 -12 11 -12 -6z"/>
<path d="M5975 711 c-3 -5 -2 -12 3 -15 5 -3 9 1 9 9 0 17 -3 19 -12 6z"/>
<path d="M6935 711 c-3 -5 -2 -12 3 -15 5 -3 9 1 9 9 0 17 -3 19 -12 6z"/>
<path d="M7675 709 c-4 -6 -5 -12 -2 -15 2 -3 7 2 10 11 7 17 1 20 -8 4z"/>
<path d="M2826 702 c-3 -5 1 -9 9 -9 8 0 12 4 9 9 -3 4 -7 8 -9 8 -2 0 -6 -4
-9 -8z"/>
<path d="M3286 698 c3 -5 10 -6 15 -3 13 9 11 12 -6 12 -8 0 -12 -4 -9 -9z"/>
<path d="M3496 698 c3 -5 10 -6 15 -3 13 9 11 12 -6 12 -8 0 -12 -4 -9 -9z"/>
<path d="M3606 698 c3 -5 10 -6 15 -3 13 9 11 12 -6 12 -8 0 -12 -4 -9 -9z"/>
<path d="M3870 705 c0 -7 30 -13 34 -7 3 4 -4 9 -15 9 -10 1 -19 0 -19 -2z"/>
<path d="M4293 689 c-2 -23 3 -25 10 -4 4 8 3 16 -1 19 -4 3 -9 -4 -9 -15z"/>
<path d="M4510 705 c0 -7 30 -13 34 -7 3 4 -4 9 -15 9 -10 1 -19 0 -19 -2z"/>
<path d="M4933 689 c-2 -23 3 -25 10 -4 4 8 3 16 -1 19 -4 3 -9 -4 -9 -15z"/>
<path d="M5206 698 c3 -5 10 -6 15 -3 13 9 11 12 -6 12 -8 0 -12 -4 -9 -9z"/>
<path d="M5416 698 c3 -5 10 -6 15 -3 13 9 11 12 -6 12 -8 0 -12 -4 -9 -9z"/>
<path d="M5526 698 c3 -5 10 -6 15 -3 13 9 11 12 -6 12 -8 0 -12 -4 -9 -9z"/>
<path d="M5736 698 c3 -4 11 -5 19 -1 21 7 19 12 -4 10 -11 0 -18 -5 -15 -9z"/>
<path d="M5874 702 c4 -3 14 -7 22 -8 9 -1 13 0 10 4 -4 3 -14 7 -22 8 -9 1
-13 0 -10 -4z"/>
<path d="M6110 705 c0 -7 30 -13 34 -7 3 4 -4 9 -15 9 -10 1 -19 0 -19 -2z"/>
<path d="M6493 695 c0 -8 4 -12 9 -9 5 3 6 10 3 15 -9 13 -12 11 -12 -6z"/>
<path d="M6656 702 c-3 -5 1 -9 9 -9 8 0 12 4 9 9 -3 4 -7 8 -9 8 -2 0 -6 -4
-9 -8z"/>
<path d="M6834 702 c4 -3 14 -7 22 -8 9 -1 13 0 10 4 -4 3 -14 7 -22 8 -9 1
-13 0 -10 -4z"/>
<path d="M7126 698 c3 -5 10 -6 15 -3 13 9 11 12 -6 12 -8 0 -12 -4 -9 -9z"/>
<path d="M7354 702 c4 -3 14 -7 22 -8 9 -1 13 0 10 4 -4 3 -14 7 -22 8 -9 1
-13 0 -10 -4z"/>
<path d="M7233 685 c0 -8 4 -12 9 -9 5 3 6 10 3 15 -9 13 -12 11 -12 -6z"/>
<path d="M3110 600 c0 -5 5 -10 11 -10 5 0 7 5 4 10 -3 6 -8 10 -11 10 -2 0
-4 -4 -4 -10z"/>
<path d="M4070 600 c0 -5 5 -10 11 -10 5 0 7 5 4 10 -3 6 -8 10 -11 10 -2 0
-4 -4 -4 -10z"/>
<path d="M4550 600 c0 -5 5 -10 11 -10 5 0 7 5 4 10 -3 6 -8 10 -11 10 -2 0
-4 -4 -4 -10z"/>
<path d="M5030 600 c0 -5 5 -10 11 -10 5 0 7 5 4 10 -3 6 -8 10 -11 10 -2 0
-4 -4 -4 -10z"/>
<path d="M5990 600 c0 -5 5 -10 11 -10 5 0 7 5 4 10 -3 6 -8 10 -11 10 -2 0
-4 -4 -4 -10z"/>
<path d="M6470 600 c0 -5 5 -10 11 -10 5 0 7 5 4 10 -3 6 -8 10 -11 10 -2 0
-4 -4 -4 -10z"/>
<path d="M6950 600 c0 -5 5 -10 11 -10 5 0 7 5 4 10 -3 6 -8 10 -11 10 -2 0
-4 -4 -4 -10z"/>
</g>
</svg>
